<?xml version="1.0" encoding="utf-8"?>
<!-- Generator: Adobe Illustrator 18.1.1, SVG Export Plug-In . SVG Version: 6.00 Build 0)  -->
<svg version="1.1" id="Layer_1" xmlns="http://www.w3.org/2000/svg" xmlns:xlink="http://www.w3.org/1999/xlink" x="0px" y="0px"
	 viewBox="0 0 200 200" enable-background="new 0 0 200 200" xml:space="preserve">
<path d="M85.968,94.953c-1.672-0.121-3.343-0.343-5.015-0.347c-14.166-0.028-28.333-0.003-42.499-0.021
	c-7.421-0.009-12-3.939-12.059-10.278c-0.058-6.247,4.672-10.561,11.915-10.578c22.658-0.054,45.316-0.02,69.34-0.02
	c-3.347-2.543-5.712-4.414-8.153-6.181c-6.066-4.39-12.221-8.66-18.236-13.118c-4.932-3.655-6.038-9.303-2.985-14.048
	c3.069-4.77,8.686-6.333,14.005-3.415c22.295,12.231,44.719,24.247,66.701,37.023c18.23,10.596,27.214,31.891,22.371,52.372
	c-4.759,20.124-20.506,34.856-41.238,37.405c-3.294,0.405-6.625,0.718-9.939,0.725c-25.333,0.054-50.666,0.092-75.999-0.019
	c-9.776-0.043-15.071-8.58-9.784-16.195c1.659-2.389,5.678-4.264,8.697-4.387c12.303-0.501,24.638-0.232,36.961-0.246
	c1.562-0.002,3.124,0,4.687,0c0.082-0.524,0.164-1.048,0.246-1.571c-1.024-0.339-2.049-0.975-3.072-0.972
	c-15.924,0.053-31.847,0.229-47.771,0.271c-3.311,0.009-6.657-0.185-9.927-0.68c-5.595-0.847-9.14-5.517-8.636-10.936
	c0.484-5.201,4.556-9.099,10.078-9.142c14.991-0.117,29.982-0.042,44.974-0.095c1.853-0.007,3.706-0.327,5.558-0.501
	c0.033-0.507,0.066-1.014,0.099-1.521c-1.254-0.256-2.508-0.733-3.762-0.733c-17.655-0.009-35.31-0.023-52.964,0.118
	c-7.358,0.059-12.093-3.702-12.203-10.148c-0.112-6.536,4.113-10.501,11.708-10.546c17.166-0.101,34.332-0.025,51.498-0.075
	c1.814-0.005,3.627-0.371,5.44-0.569C85.989,96,85.979,95.476,85.968,94.953z"/>
</svg>
