<?xml version="1.0" encoding="utf-8"?>
<!-- Generator: Adobe Illustrator 18.1.1, SVG Export Plug-In . SVG Version: 6.00 Build 0)  -->
<svg version="1.1" id="Layer_1" xmlns="http://www.w3.org/2000/svg" xmlns:xlink="http://www.w3.org/1999/xlink" x="0px" y="0px"
	 viewBox="0 0 200 200" enable-background="new 0 0 200 200" xml:space="preserve">
<g>
	<path d="M75.636,106.401c2.964,2.75,5.506,5.23,8.216,7.51c0.472,0.397,1.653-0.048,2.506-0.104
		c-0.135-0.727-0.036-1.651-0.451-2.141c-1.048-1.239-2.327-2.284-4.202-4.058c7.675-1.01,14.537-1.965,21.42-2.751
		c0.806-0.092,1.817,0.61,2.564,1.17c7.462,5.591,12.385,5.598,20.477-0.269c3.488,5.951,8.22,9.796,15.676,8.26
		c8.05-1.658,10.486-7.726,11.633-14.887c0.616,15.625,1.915,31.142-7.543,45.13c-19.781,29.255-62.874,28.861-81.914-1.062
		c-5.616-8.826-10.793-17.937-16.01-27.01c-4.001-6.958-4.973-14.315-2.207-22.03c3.206-8.94,9.314-13.339,18.753-13.345
		c11.988-0.008,23.976-0.019,35.964,0.008c7.03,0.016,11.712,3.902,12.048,9.912c0.326,5.836-4.218,10.215-11.175,11.056
		c-7.737,0.935-15.453,2.05-23.17,3.141C77.644,105.012,77.128,105.533,75.636,106.401z"/>
	<path d="M128.927,98.964c2.029-11.439,4.01-23.875,6.523-36.204c1.162-5.702,7.07-9.009,12.176-7.7
		c5.591,1.434,8.982,6.814,7.967,12.571c-1.956,11.093-3.872,22.194-5.835,33.286c-1.252,7.073-5.509,10.654-11.86,10.05
		C132.159,110.422,128.699,106.184,128.927,98.964z"/>
	<path d="M108.25,103.633c9.706-7.997,10.012-14.464,1.441-23.796c-0.782-0.851-1-2.651-0.801-3.903
		c1.219-7.694,2.488-15.387,4.027-23.023c1.23-6.098,6.052-9.124,12.227-8.107c4.907,0.808,8.654,5.43,7.866,10.98
		c-1.607,11.325-3.745,22.575-5.665,33.856c-0.501,2.942-0.926,5.9-1.527,8.821c-0.837,4.065-3.206,7.139-7.225,8.116
		C114.826,107.494,110.954,107.288,108.25,103.633z"/>
	<path d="M105.263,77.574c-7.131,0-13.733,0-21.073,0c1.903-10.623,3.924-20.936,5.533-31.314c0.748-4.824,1.757-9.182,6.707-11.325
		c6.789-2.94,15.043,2.025,14.263,9.348C109.506,55.422,107.14,66.435,105.263,77.574z"/>
	<path d="M81.097,77.57c-7.441,0-14.046,0-21.245,0c1.765-9.615,3.214-19.025,5.306-28.29c1.088-4.819,6.146-7.259,11.452-6.524
		c4.786,0.663,8.721,4.596,8.231,9.564C84.017,60.685,82.414,68.972,81.097,77.57z"/>
</g>
</svg>
