<?xml version="1.0" encoding="utf-8"?>
<!-- Generator: Adobe Illustrator 18.1.1, SVG Export Plug-In . SVG Version: 6.00 Build 0)  -->
<svg version="1.1" id="Layer_1" xmlns="http://www.w3.org/2000/svg" xmlns:xlink="http://www.w3.org/1999/xlink" x="0px" y="0px"
	 viewBox="0 0 764.331 108.498" enable-background="new 0 0 764.331 108.498" xml:space="preserve">
<g>
	<path d="M28.468,89.624c-0.632-1.897-1.054-3.058-1.054-9.067V68.958c0-6.854-2.32-9.384-7.592-9.384h-4.006v30.05H4.218V15.817
		H21.72c12.02,0,17.187,5.588,17.187,16.976v5.799c0,7.592-2.425,12.441-7.592,14.867v0.211c5.799,2.425,7.697,7.907,7.697,15.604
		v11.388c0,3.585,0.105,6.221,1.265,8.962H28.468z M15.816,26.361V49.03h4.534c4.323,0,6.959-1.897,6.959-7.803v-7.274
		c0-5.272-1.792-7.592-5.905-7.592H15.816z"/>
	<path d="M45.655,33.531c0-11.81,6.221-18.558,17.608-18.558c11.387,0,17.608,6.748,17.608,18.558V71.91
		c0,11.81-6.221,18.558-17.608,18.558c-11.388,0-17.608-6.748-17.608-18.558V33.531z M57.253,72.648c0,5.271,2.32,7.275,6.01,7.275
		c3.69,0,6.01-2.004,6.01-7.275V32.793c0-5.272-2.32-7.275-6.01-7.275c-3.69,0-6.01,2.003-6.01,7.275V72.648z"/>
	<path d="M121.994,62.104v9.806c0,11.81-5.905,18.558-17.292,18.558S87.41,83.72,87.41,71.91V33.531
		c0-11.81,5.905-18.558,17.292-18.558s17.292,6.748,17.292,18.558v7.17h-10.966v-7.908c0-5.272-2.32-7.275-6.01-7.275
		c-3.69,0-6.01,2.003-6.01,7.275v39.855c0,5.271,2.32,7.17,6.01,7.17c3.69,0,6.01-1.898,6.01-7.17V62.104H121.994z"/>
	<path d="M144.24,60.207l-3.584,6.748v22.669h-11.598V15.817h11.598v31.947h0.21l14.973-31.947h11.598l-16.132,32.896l16.132,40.91
		h-11.915L144.24,60.207z"/>
	<path d="M183.885,78.447v11.177h-11.176V78.447H183.885z"/>
	<path d="M243.036,34.058v9.596c0,11.809-5.694,18.24-17.292,18.24h-5.482v27.73h-11.598V15.817h17.081
		C237.342,15.817,243.036,22.249,243.036,34.058z M220.261,26.361V51.35h5.482c3.69,0,5.694-1.687,5.694-6.959V33.32
		c0-5.272-2.003-6.959-5.694-6.959H220.261z"/>
	<path d="M284.581,89.624h-11.704l-2.003-13.391H256.64l-2.003,13.391h-10.649l11.809-73.807h16.976L284.581,89.624z
		 M258.116,66.217h11.176l-5.482-37.325h-0.211L258.116,66.217z"/>
	<path d="M324.332,34.058v9.596c0,11.809-5.693,18.24-17.292,18.24h-5.482v27.73h-11.599V15.817h17.081
		C318.639,15.817,324.332,22.249,324.332,34.058z M301.558,26.361V51.35h5.482c3.69,0,5.694-1.687,5.694-6.959V33.32
		c0-5.272-2.003-6.959-5.694-6.959H301.558z"/>
	<path d="M341.308,46.922h15.922v10.544h-15.922V79.08h20.033v10.544H329.71V15.817h31.631v10.544h-20.033V46.922z"/>
	<path d="M392.763,89.624c-0.633-1.897-1.055-3.058-1.055-9.067V68.958c0-6.854-2.319-9.384-7.592-9.384h-4.007v30.05h-11.598
		V15.817h17.503c12.02,0,17.186,5.588,17.186,16.976v5.799c0,7.592-2.425,12.441-7.591,14.867v0.211
		c5.799,2.425,7.696,7.907,7.696,15.604v11.388c0,3.585,0.105,6.221,1.266,8.962H392.763z M380.11,26.361V49.03h4.534
		c4.323,0,6.959-1.897,6.959-7.803v-7.274c0-5.272-1.793-7.592-5.904-7.592H380.11z"/>
	<path d="M422.075,78.447v11.177h-11.176V78.447H422.075z"/>
	<path d="M462.458,14.974c11.282,0,17.081,6.748,17.081,18.558v2.319h-10.966v-3.058c0-5.272-2.108-7.275-5.799-7.275
		s-5.799,2.003-5.799,7.275c0,5.377,2.319,9.384,9.911,16.026c9.7,8.541,12.758,14.656,12.758,23.091
		c0,11.81-5.904,18.558-17.292,18.558c-11.387,0-17.292-6.748-17.292-18.558v-4.533h10.966v5.271c0,5.271,2.319,7.17,6.01,7.17
		s6.01-1.898,6.01-7.17c0-5.377-2.319-9.384-9.911-16.026c-9.7-8.541-12.758-14.656-12.758-23.091
		C445.376,21.722,451.175,14.974,462.458,14.974z"/>
	<path d="M519.922,62.104v9.806c0,11.81-5.904,18.558-17.292,18.558s-17.292-6.748-17.292-18.558V33.531
		c0-11.81,5.904-18.558,17.292-18.558s17.292,6.748,17.292,18.558v7.17h-10.966v-7.908c0-5.272-2.319-7.275-6.01-7.275
		s-6.01,2.003-6.01,7.275v39.855c0,5.271,2.319,7.17,6.01,7.17s6.01-1.898,6.01-7.17V62.104H519.922z"/>
	<path d="M526.987,15.817h11.598v73.807h-11.598V15.817z"/>
	<path d="M562.624,14.974c11.282,0,17.081,6.748,17.081,18.558v2.319h-10.966v-3.058c0-5.272-2.108-7.275-5.799-7.275
		s-5.799,2.003-5.799,7.275c0,5.377,2.319,9.384,9.911,16.026c9.7,8.541,12.758,14.656,12.758,23.091
		c0,11.81-5.904,18.558-17.292,18.558c-11.387,0-17.292-6.748-17.292-18.558v-4.533h10.966v5.271c0,5.271,2.319,7.17,6.01,7.17
		s6.01-1.898,6.01-7.17c0-5.377-2.319-9.384-9.911-16.026c-9.7-8.541-12.758-14.656-12.758-23.091
		C545.542,21.722,551.341,14.974,562.624,14.974z"/>
	<path d="M602.058,14.974c11.282,0,17.081,6.748,17.081,18.558v2.319h-10.966v-3.058c0-5.272-2.108-7.275-5.799-7.275
		s-5.799,2.003-5.799,7.275c0,5.377,2.319,9.384,9.911,16.026c9.7,8.541,12.758,14.656,12.758,23.091
		c0,11.81-5.904,18.558-17.292,18.558c-11.387,0-17.292-6.748-17.292-18.558v-4.533h10.966v5.271c0,5.271,2.319,7.17,6.01,7.17
		s6.01-1.898,6.01-7.17c0-5.377-2.319-9.384-9.911-16.026c-9.7-8.541-12.758-14.656-12.758-23.091
		C584.977,21.722,590.776,14.974,602.058,14.974z"/>
	<path d="M624.939,33.531c0-11.81,6.221-18.558,17.608-18.558c11.387,0,17.608,6.748,17.608,18.558V71.91
		c0,11.81-6.222,18.558-17.608,18.558c-11.388,0-17.608-6.748-17.608-18.558V33.531z M636.538,72.648
		c0,5.271,2.319,7.275,6.01,7.275s6.01-2.004,6.01-7.275V32.793c0-5.272-2.319-7.275-6.01-7.275s-6.01,2.003-6.01,7.275V72.648z"/>
	<path d="M691.893,89.624c-0.633-1.897-1.055-3.058-1.055-9.067V68.958c0-6.854-2.319-9.384-7.592-9.384h-4.007v30.05h-11.598
		V15.817h17.503c12.02,0,17.186,5.588,17.186,16.976v5.799c0,7.592-2.425,12.441-7.591,14.867v0.211
		c5.799,2.425,7.696,7.907,7.696,15.604v11.388c0,3.585,0.105,6.221,1.266,8.962H691.893z M679.24,26.361V49.03h4.534
		c4.323,0,6.959-1.897,6.959-7.803v-7.274c0-5.272-1.793-7.592-5.904-7.592H679.24z"/>
	<path d="M725.633,14.974c11.282,0,17.081,6.748,17.081,18.558v2.319h-10.966v-3.058c0-5.272-2.108-7.275-5.799-7.275
		s-5.799,2.003-5.799,7.275c0,5.377,2.319,9.384,9.911,16.026c9.7,8.541,12.758,14.656,12.758,23.091
		c0,11.81-5.904,18.558-17.292,18.558c-11.387,0-17.292-6.748-17.292-18.558v-4.533h10.966v5.271c0,5.271,2.319,7.17,6.01,7.17
		s6.01-1.898,6.01-7.17c0-5.377-2.319-9.384-9.911-16.026c-9.7-8.541-12.758-14.656-12.758-23.091
		C708.552,21.722,714.351,14.974,725.633,14.974z"/>
	<path d="M760.113,78.447v11.177h-11.176V78.447H760.113z"/>
</g>
</svg>
