<?xml version="1.0" encoding="utf-8"?>
<!-- Generator: Adobe Illustrator 18.1.1, SVG Export Plug-In . SVG Version: 6.00 Build 0)  -->
<svg version="1.1" id="Layer_1" xmlns="http://www.w3.org/2000/svg" xmlns:xlink="http://www.w3.org/1999/xlink" x="0px" y="0px"
	 viewBox="0 0 200 200" enable-background="new 0 0 200 200" xml:space="preserve">
<g>
	<path d="M125.09,44.229c11.641,6.567,23.532,12.731,34.866,19.79c19.184,11.948,27.317,34.203,20.956,55.479
		c-6.101,20.409-25.361,34.545-47.284,34.679c-5.987,0.036-11.975,0.006-18.18-0.347c7.365-1.498,14.283-3.613,15.638-12.295
		c1.077-6.896-2.021-11.866-8.369-15.262c5.88-7.379,6.269-14.378-0.33-21.503c-1.133-1.224-0.389-4.422-0.121-6.66
		c0.612-5.098,1.466-10.167,2.287-15.685c2.029,1.485,3.917,2.867,5.805,4.249c0.482-0.499,0.964-0.997,1.446-1.496
		c-2.679-3.066-5.359-6.132-8.038-9.198c-0.493,0.163-0.987,0.327-1.48,0.49c-1.074,7.472-2.138,14.946-3.227,22.416
		c-0.311,2.134-0.502,4.311-1.08,6.375c-1.331,4.753-5.951,7.55-11.242,7.021c-4.793-0.479-8.621-4.298-8.669-9.311
		c-0.136-14.151-0.271-28.309,0.05-42.454c0.157-6.899,5.066-10.869,10.744-13.855c1.699-0.893,3.481-1.626,5.226-2.433
		C117.757,44.229,121.424,44.229,125.09,44.229z"/>
	<path d="M94.514,59.592c0,15.02,0,29.628,0,44.721c-8.984,1.612-18.095,3.28-27.219,4.875c-12.415,2.17-24.847,4.244-37.257,6.438
		c-6.247,1.105-11.837-2.251-12.887-7.916c-1.095-5.904,2.529-11.161,8.749-12.404c18.693-3.736,37.404-7.378,56.095-11.126
		c1.608-0.322,3.114-1.151,4.667-1.745c-0.024-0.53-0.047-1.059-0.071-1.589c-4.069-0.866-8.123-1.815-12.211-2.583
		c-13.197-2.481-26.417-4.841-39.607-7.36c-5.915-1.13-9.271-4.446-9.71-9.149c-0.481-5.161,1.595-9.288,6.143-10.77
		c2.421-0.789,5.287-0.94,7.819-0.54C57.368,53.344,75.678,56.459,94.514,59.592z"/>
	<path d="M128.091,139.38c-0.076,4.801-2.946,8.831-7.69,9.735c-12.356,2.357-24.746,4.552-37.165,6.552
		c-5.018,0.808-10.143-3.178-11.067-7.968c-1.093-5.664,1.955-11.166,7.543-12.25c12.184-2.365,24.418-4.54,36.701-6.308
		C123.395,128.136,128.196,132.756,128.091,139.38z"/>
	<path d="M120.703,108.412c6.243,6.827,3.394,15.794-5.827,17.565c-11.883,2.282-23.838,4.194-35.768,6.232
		c-2.446,0.418-4.914,0.949-7.377,0.974c-5.257,0.053-9.068-3.36-9.989-8.577c-0.833-4.714,1.673-10.019,6.309-11.134
		c8.688-2.09,17.546-3.478,26.35-5.064c0.657-0.118,1.581,0.36,2.162,0.831C107.502,118.097,111.705,117.965,120.703,108.412z"/>
</g>
</svg>
